<svg width="242.791504" height="181.236572" viewBox="0 0 242.792 181.237" fill="none" xmlns="http://www.w3.org/2000/svg" xmlns:xlink="http://www.w3.org/1999/xlink">
	<desc>
			Created with Pixso.
	</desc>
	<defs/>
	<path id="矢量 1" d="M86.91 0C38.91 0 0 40.57 0 90.61C0 140.66 38.91 181.23 86.91 181.23C87.08 181.23 87.25 181.23 87.42 181.23C87.77 181.23 88.11 181.23 88.45 181.23C111.67 180.81 124.18 181.23 148.05 155.02L179.3 120.54L214.51 159.41L242.58 130.57L206.39 90.63L242.79 50.47L214.72 21.63L179.3 60.73L151.01 28.57C126.48 3.26 112.1 0 86.91 0ZM152.2 90.63L179.3 60.73L206.39 90.63L179.3 120.54L152.2 90.63ZM152.2 90.63C124.95 130.57 112.68 142.04 86.91 142.04C61.14 142.04 39.64 118.11 39.64 90.61C39.64 63.11 61.91 40.81 86.91 40.81C111.92 40.81 126.48 50.47 152.2 90.63Z" fill="#0061FE" fill-opacity="1.000000" fill-rule="evenodd"/>
</svg>
