<svg width="1156.537109" height="182.992676" viewBox="0 0 1156.54 182.993" fill="none" xmlns="http://www.w3.org/2000/svg" xmlns:xlink="http://www.w3.org/1999/xlink">
	<desc>
			Created with Pixso.
	</desc>
	<defs/>
	<rect id="矢量 1" width="242.791473" height="181.232498" fill="#FFFFFF" fill-opacity="0"/>
	<path id="矢量 1" d="M86.91 6.1e-5C38.91 6.1e-5 0 40.57 0 90.61C0 140.66 38.91 181.23 86.91 181.23C87.08 181.23 87.25 181.23 87.42 181.23C87.77 181.23 88.11 181.23 88.45 181.23C111.67 180.81 124.18 181.23 148.05 155.02L179.3 120.54L214.51 159.41L242.58 130.57L206.39 90.63L242.79 50.47L214.72 21.63L179.3 60.73L151.01 28.57C126.48 3.26 112.1 6.1e-5 86.91 6.1e-5ZM152.2 90.63L179.3 60.73L206.39 90.63L179.3 120.54L152.2 90.63ZM152.2 90.63C124.95 130.57 112.68 142.04 86.91 142.04C61.14 142.04 39.64 118.11 39.64 90.61C39.64 63.11 61.91 40.81 86.91 40.81C111.92 40.81 126.48 50.47 152.2 90.63Z" fill="#0061FE" fill-opacity="1.000000" fill-rule="evenodd"/>
	<path id="LingmoOS" d="M409.93 8.86L409.93 24.28L394.82 24.28L394.82 8.86L409.93 8.86ZM319.09 11.65L319.09 128.99L376.94 128.99L376.94 143.19L303.97 143.19L303.97 11.65L319.09 11.65ZM997.73 138.83C986.57 138.83 976.49 136.16 967.5 130.81C958.5 125.45 951.43 118.1 946.27 108.75C941.14 99.4 938.57 88.95 938.57 77.4C938.57 65.88 941.14 55.44 946.27 46.09C951.43 36.74 958.5 29.38 967.5 24.03C976.49 18.65 986.57 15.96 997.73 15.96C1008.9 15.96 1018.97 18.62 1027.97 23.95C1036.96 29.24 1044.02 36.57 1049.16 45.92C1054.31 55.27 1056.89 65.76 1056.89 77.4C1056.89 89.06 1054.31 99.57 1049.16 108.92C1044.02 118.27 1036.96 125.59 1027.97 130.89C1018.97 136.19 1008.9 138.83 997.73 138.83ZM1115.55 138.83C1107.22 138.83 1099.28 137.31 1091.75 134.27C1084.23 131.2 1078.36 127.24 1074.13 122.4L1077.86 115.85C1081.88 120.33 1087.28 123.99 1094.05 126.83C1100.81 129.65 1107.93 131.06 1115.39 131.06C1126.24 131.06 1134.42 128.88 1139.94 124.51C1145.48 120.12 1148.24 114.4 1148.24 107.36C1148.24 101.92 1146.78 97.59 1143.84 94.38C1140.9 91.14 1137.27 88.66 1132.93 86.95C1128.62 85.2 1122.77 83.41 1115.39 81.58C1107.06 79.38 1100.37 77.24 1095.31 75.16C1090.29 73.07 1086.02 69.88 1082.5 65.57C1078.98 61.23 1077.22 55.43 1077.22 48.16C1077.22 42.27 1078.68 36.88 1081.59 31.98C1084.52 27.07 1088.99 23.19 1095 20.31C1101.03 17.41 1108.54 15.96 1117.54 15.96C1123.8 15.96 1129.97 16.95 1136.02 18.92C1142.11 20.89 1147.37 23.54 1151.81 26.86L1148.72 33.96C1144.17 30.64 1139.16 28.12 1133.68 26.4C1128.21 24.65 1122.82 23.78 1117.54 23.78C1107.01 23.78 1099.03 26.03 1093.61 30.54C1088.21 35.02 1085.52 40.83 1085.52 47.99C1085.52 53.43 1086.97 57.76 1089.88 61C1092.81 64.21 1096.43 66.69 1100.75 68.44C1105.09 70.16 1111 71.99 1118.49 73.93C1126.81 76.13 1133.47 78.27 1138.43 80.35C1143.43 82.44 1147.69 85.59 1151.22 89.82C1154.76 94.02 1156.54 99.69 1156.54 106.85C1156.54 112.74 1155.04 118.1 1152.05 122.95C1149.06 127.79 1144.48 131.65 1138.29 134.52C1132.12 137.4 1124.54 138.83 1115.55 138.83ZM997.73 130.72C1007.28 130.72 1015.89 128.41 1023.56 123.79C1031.26 119.17 1037.32 112.81 1041.78 104.69C1046.22 96.55 1048.43 87.45 1048.43 77.4C1048.43 67.37 1046.22 58.3 1041.78 50.19C1037.32 42.05 1031.26 35.66 1023.56 31.05Q1020.35 29.11 1016.93 27.72Q1008.06 24.12 997.73 24.12C988.21 24.12 979.57 26.43 971.82 31.05C964.07 35.66 957.97 42.05 953.53 50.19C949.09 58.3 946.86 67.37 946.86 77.4C946.86 87.45 949.09 96.55 953.53 104.69C957.97 112.81 964.07 119.17 971.82 123.79C979.57 128.41 988.21 130.72 997.73 130.72ZM440 143.19L440 52.3C451.69 45.4 465.77 41.65 482.25 41.06Q499.59 41.06 510.81 49.35L510.86 49.38C519.4 55.72 523.67 64.83 523.67 76.72L523.67 143.19L509.23 143.19L509.23 77.57C509.23 70.3 506.84 64.65 502.05 60.62C497.29 56.59 490.69 54.58 482.25 54.58Q470.11 54.58 459.7 58.82L459.7 58.82Q457.01 59.92 454.44 61.3L454.44 143.19L440 143.19ZM586.43 182.99C573.1 182.99 561.29 180.16 551 174.5L555.36 161.35C564.81 166.65 575.16 169.3 586.43 169.3C596.51 169.3 604.47 166.82 610.32 161.86C616.16 156.9 619.08 150.21 619.08 141.79L619.08 129.16C610.75 134.93 601.55 137.82 591.47 137.82C578.35 137.82 567.56 133.33 559.09 124.34C550.65 115.33 546.44 103.78 546.44 89.69C546.44 75.38 550.91 63.71 559.85 54.66C568.79 45.59 580.24 41.06 594.21 41.06C608.83 41.06 621.89 44.52 633.37 51.45L633.37 141.28C633.37 153.85 629.08 163.93 620.51 171.54Q619.07 172.83 617.52 173.97L617.52 173.97Q605.3 182.99 586.43 182.99ZM764.71 41.06C789.28 41.06 801.57 52.59 801.57 75.66L801.57 143.19L786.97 143.19L786.97 76.38C786.97 69 785.11 63.52 781.41 59.95C777.73 56.37 772.11 54.58 764.55 54.58C754.68 54.58 746.44 57.58 739.83 63.58L739.83 143.19L725.35 143.19L725.35 75.33C725.35 61.5 717.77 54.58 702.61 54.58C693.83 54.92 685.59 57.05 677.9 60.96L677.9 143.19L663.45 143.19L663.45 53.02C675.25 45.52 688.36 41.54 702.77 41.06C715.65 41.06 725.73 44.93 733.01 52.68C742.87 45.05 753.44 41.17 764.71 41.06ZM824.17 93.33C824.49 78.45 829.2 66.12 838.3 56.31C847.4 46.51 858.89 41.43 872.78 41.06C886.21 41.06 897.64 46.14 907.06 56.31C916.47 66.45 921.18 78.79 921.18 93.33C920.86 108.12 916.16 120.44 907.06 130.3C897.96 140.16 886.53 145.26 872.78 145.59C858.89 145.26 847.4 140.16 838.3 130.3C829.2 120.44 824.49 108.12 824.17 93.33ZM409.62 43.51L409.62 143.19L395.13 143.19L395.13 43.51L409.62 43.51ZM594.05 124.51Q598.04 124.51 601.86 123.7L601.86 123.7Q610.95 121.78 619.08 115.3L619.08 60.12C611.6 56.43 603.41 54.58 594.52 54.58C584.58 54.58 576.48 57.85 570.24 64.38C564.03 70.89 560.92 79.37 560.92 89.82C560.92 100.24 563.95 108.64 570 115C576.06 121.34 584.08 124.51 594.05 124.51ZM838.66 93.33C838.66 104.28 841.9 113.47 848.38 120.88C854.88 128.26 863.02 131.95 872.78 131.95C882.3 131.95 890.31 128.26 896.82 120.88C903.33 113.47 906.58 104.26 906.58 93.24C906.58 82.23 903.33 73.03 896.82 65.65C890.31 58.27 882.3 54.58 872.78 54.58Q865.63 54.58 859.65 57.22Q853.37 59.98 848.38 65.65C841.9 73.03 838.66 82.26 838.66 93.33Z" fill="#0061FE" fill-opacity="1.000000" fill-rule="evenodd"/>
</svg>
