<svg width="852.560303" height="174.125183" viewBox="0 0 852.56 174.125" fill="none" xmlns="http://www.w3.org/2000/svg">
    <desc>
        Created with Pixso.
    </desc>
    <defs/>
    <path id="LingmoOS"
          d="M105.96 0L105.96 15.42L90.84 15.42L90.84 0L105.96 0ZM15.11 2.78L15.11 120.12L72.96 120.12L72.96 134.32L0 134.32L0 2.78L15.11 2.78ZM693.75 129.97C682.59 129.97 672.51 127.29 663.52 121.94C654.53 116.59 647.45 109.23 642.29 99.88C637.16 90.53 634.59 80.08 634.59 68.53C634.59 57.01 637.16 46.57 642.29 37.22C647.45 27.87 654.53 20.52 663.52 15.16C672.51 9.78 682.59 7.09 693.75 7.09C704.92 7.09 714.99 9.76 723.99 15.08C732.98 20.38 740.04 27.7 745.17 37.05C750.33 46.4 752.91 56.9 752.91 68.53C752.91 80.19 750.33 90.7 745.17 100.05C740.04 109.4 732.98 116.73 723.99 122.02C714.99 127.32 704.92 129.97 693.75 129.97ZM811.57 129.97C803.24 129.97 795.3 128.45 787.76 125.4C780.25 122.33 774.38 118.37 770.15 113.53L773.88 106.98C777.9 111.46 783.29 115.12 790.07 117.97C796.84 120.78 803.95 122.19 811.41 122.19C822.26 122.19 830.44 120.01 835.97 115.64C841.5 111.25 844.26 105.53 844.26 98.49C844.26 93.05 842.8 88.73 839.86 85.52C836.92 82.28 833.29 79.8 828.95 78.08C824.64 76.33 818.79 74.54 811.41 72.71C803.08 70.52 796.39 68.37 791.34 66.29C786.31 64.21 782.04 61.01 778.52 56.7C775 52.36 773.24 46.56 773.24 39.29C773.24 33.4 774.7 28.01 777.61 23.11C780.54 18.21 785.01 14.32 791.02 11.45C797.05 8.54 804.56 7.09 813.55 7.09C819.82 7.09 825.99 8.08 832.04 10.05C838.13 12.02 843.39 14.67 847.83 17.99L844.74 25.09C840.19 21.77 835.18 19.25 829.7 17.53C824.23 15.78 818.84 14.91 813.55 14.91C803.03 14.91 795.05 17.16 789.63 21.67C784.23 26.15 781.54 31.97 781.54 39.12C781.54 44.56 782.99 48.9 785.9 52.14C788.84 55.35 792.46 57.83 796.77 59.57C801.11 61.29 807.02 63.12 814.51 65.06C822.84 67.26 829.49 69.4 834.46 71.49C839.46 73.57 843.72 76.73 847.24 80.95C850.78 85.15 852.56 90.83 852.56 97.98C852.56 103.87 851.06 109.23 848.07 114.08C845.08 118.92 840.49 122.78 834.3 125.66C828.14 128.53 820.56 129.97 811.57 129.97ZM693.75 121.85C703.3 121.85 711.91 119.54 719.58 114.92C727.28 110.3 733.35 103.94 737.79 95.83C742.24 87.68 744.46 78.59 744.46 68.53C744.46 58.5 742.24 49.43 737.79 41.32C733.35 33.18 727.28 26.8 719.58 22.18Q716.37 20.24 712.94 18.85Q704.08 15.25 693.75 15.25C684.23 15.25 675.59 17.56 667.84 22.18C660.09 26.8 654 33.18 649.55 41.32C645.11 49.43 642.89 58.5 642.89 68.53C642.89 78.59 645.11 87.68 649.55 95.83C654 103.94 660.09 110.3 667.84 114.92C675.59 119.54 684.23 121.85 693.75 121.85ZM136.02 134.32L136.02 43.43C147.71 36.53 161.8 32.78 178.27 32.19Q195.61 32.19 206.83 40.48L206.88 40.52C215.42 46.85 219.7 55.97 219.7 67.85L219.7 134.32L205.25 134.32L205.25 68.7C205.25 61.43 202.86 55.78 198.07 51.76C193.31 47.73 186.71 45.71 178.27 45.71Q166.14 45.71 155.73 49.95L155.73 49.96Q153.03 51.05 150.46 52.43L150.46 134.32L136.02 134.32ZM282.45 174.12C269.12 174.12 257.31 171.29 247.02 165.63L251.39 152.49C260.83 157.78 271.18 160.43 282.45 160.43C292.53 160.43 300.49 157.95 306.34 152.99C312.18 148.04 315.11 141.35 315.11 132.92L315.11 120.29C306.77 126.06 297.57 128.95 287.49 128.95C274.37 128.95 263.58 124.46 255.12 115.47C246.68 106.46 242.46 94.91 242.46 80.83C242.46 66.52 246.93 54.84 255.87 45.8C264.81 36.73 276.26 32.19 290.23 32.19C304.86 32.19 317.91 35.66 329.39 42.59L329.39 132.42C329.39 144.98 325.1 155.06 316.54 162.67Q315.09 163.96 313.54 165.1L313.54 165.1Q301.32 174.12 282.45 174.12ZM460.73 32.19C485.3 32.19 497.59 43.73 497.59 66.8L497.59 134.32L482.99 134.32L482.99 67.52C482.99 60.14 481.14 54.66 477.43 51.08C473.76 47.5 468.14 45.71 460.57 45.71C450.71 45.71 442.47 48.71 435.85 54.71L435.85 134.32L421.37 134.32L421.37 66.46C421.37 52.63 413.79 45.71 398.64 45.71C389.86 46.05 381.62 48.18 373.92 52.09L373.92 134.32L359.48 134.32L359.48 44.15C371.27 36.66 384.38 32.67 398.8 32.19C411.68 32.19 421.75 36.07 429.03 43.81C438.9 36.18 449.46 32.3 460.73 32.19ZM520.2 84.46C520.51 69.59 525.22 57.25 534.32 47.45C543.42 37.64 554.91 32.56 568.8 32.19C582.24 32.19 593.66 37.28 603.08 47.45C612.5 57.59 617.21 69.92 617.21 84.46C616.89 99.25 612.18 111.57 603.08 121.43C593.98 131.29 582.55 136.39 568.8 136.73C554.91 136.39 543.42 131.29 534.32 121.43C525.22 111.57 520.51 99.25 520.2 84.46ZM105.64 34.64L105.64 134.32L91.16 134.32L91.16 34.64L105.64 34.64ZM290.07 115.64Q294.06 115.64 297.88 114.84L297.88 114.84Q306.98 112.92 315.11 106.43L315.11 51.25C307.62 47.56 299.43 45.71 290.55 45.71C280.6 45.71 272.51 48.98 266.26 55.52C260.05 62.02 256.94 70.5 256.94 80.95C256.94 91.37 259.97 99.77 266.03 106.14C272.08 112.47 280.1 115.64 290.07 115.64ZM534.68 84.46C534.68 95.42 537.92 104.6 544.4 112.01C550.91 119.39 559.04 123.08 568.8 123.08C578.32 123.08 586.34 119.39 592.84 112.01C599.35 104.6 602.6 95.39 602.6 84.37C602.6 73.36 599.35 64.16 592.84 56.78C586.34 49.4 578.32 45.71 568.8 45.71Q561.65 45.71 555.67 48.35Q549.39 51.12 544.4 56.78C537.92 64.16 534.68 73.39 534.68 84.46Z"
          fill="#0061FE" fill-opacity="1.000000" fill-rule="evenodd"/>
</svg>
